<?xml version="1.0" encoding="utf-8" ?>
<svg baseProfile="full" height="200mm" version="1.1" viewBox="0,0,200,200" width="200mm" xmlns="http://www.w3.org/2000/svg" xmlns:ev="http://www.w3.org/2001/xml-events" xmlns:xlink="http://www.w3.org/1999/xlink"><defs /><rect fill="#1a1a1a" height="200" width="200" x="0" y="0" /><rect fill="#1a1a1a" height="200" width="180" x="10" y="0" /><text alignment-baseline="middle" fill="#e1ed5e" style="dominant-baseline: central; font-size:9.0px; font-family:Arial;" text-anchor="middle" x="100.0" y="100.0">2025</text><line stroke="#e1ed5e" stroke-width="0.3" x1="100.0" x2="100.0" y1="15.0" y2="10.0" /><path d="M 100.0 14.0 a86.0,86.0 0 0,1 42.46469731375804,11.215312516191453" fill="none" id="id1" stroke="none" /><text fill="#e1ed5e" style="font-size:6.75px; font-family:Arial;" text-anchor="middle"><textPath startOffset="22.20632615414155" xlink:href="#id1">January</textPath></text><path d="M 107.76421540070413 80.48803036053334 l 1.5404834712957978 -3.871333440761815 a25.166570764417216,25.166570764417216 0 0,0 0.401126532475988,0.1636295842843699 l -1.6068938733601732 3.8442429702938656" fill="#ff0a01" stroke="none" /><line stroke="#e1ed5e" stroke-width="0.3" x1="143.23703022742887" x2="145.7803849466894" y1="26.81831364943548" y2="22.513508569990506" /><path d="M 143.74570117128098 25.957352633546492 a86.0,86.0 0 0,1 28.547481713284135,27.462654790039103" fill="none" id="id2" stroke="none" /><text fill="#e1ed5e" style="font-size:6.75px; font-family:Arial;" text-anchor="middle"><textPath startOffset="19.985693538727396" xlink:href="#id2">February</textPath></text><line stroke="#e1ed5e" stroke-width="0.3" x1="172.23445277983987" x2="176.4835382374775" y1="55.19839476539836" y2="52.563006222186495" /><path d="M 173.08426987136738 54.67131705675599 a86.0,86.0 0 0,1 12.851231095245387,41.99856678651699" fill="none" id="id3" stroke="none" /><text fill="#e1ed5e" style="font-size:6.75px; font-family:Arial;" text-anchor="middle"><textPath startOffset="22.20632615414155" xlink:href="#id3">March</textPath></text><path d="M 118.03404312379186 89.2402003453031 l 3.929662061717862 -2.344586635648291 a25.57595131217163,25.57595131217163 0 0,0 0.2223163084883271,0.3800106360967597 l -3.9694380446765165 2.276596587197636" fill="#ff1001" stroke="none" /><path d="M 119.97218684219823 93.5106431181261 l 22.569482459661057 -7.333269384926979 a44.73095822694177,44.73095822694177 0 0,0 0.23163078157016004,0.7343328763964273 l -22.692368724999422 6.943686342104132" fill="#e7ff1a" stroke="none" /><path d="M 120.67395015179393 96.31383870115 l 24.072700143700384 -4.292157762643591 a45.45235183919809,45.45235183919809 0 0,0 0.13070394843319239,0.7714221023789982 l -24.143015953653798 3.8771498719487556" fill="#deff1b" stroke="none" /><path d="M 120.94382443527127 98.46500227214037 l 28.70109950755834 -2.103537616414548 a49.77808164986743,49.77808164986743 0 0,0 0.05527597357185037,0.8550948454315235 l -28.733056072134605 1.6091837067299894" fill="#aaff21" stroke="none" /><line stroke="#e1ed5e" stroke-width="0.3" x1="184.98032266829074" x2="189.97916517819016" y1="98.17113171792111" y2="98.06355123074" /><path d="M 185.9800911702706 98.14961562048488 a86.0,86.0 0 0,1 -9.607161424134198,41.387399972396054" fill="none" id="id4" stroke="none" /><text fill="#e1ed5e" style="font-size:6.75px; font-family:Arial;" text-anchor="middle"><textPath startOffset="21.466115282336823" xlink:href="#id4">April</textPath></text><path d="M 120.99980553446 99.90962569577887 l 3.5180128469435625 -0.015140043214295275 a24.518045424972293,24.518045424972293 0 0,0 -0.0018163233201770304,0.4220495730523331 l -3.5177522263338825 -0.04541900804172253" fill="#ff0000" stroke="none" /><path d="M 120.9764740272857 100.99374915477107 l 14.349643683951571 0.6798066378383616 a35.365737395665434,35.365737395665434 0 0,0 -0.03404145744379831,0.6078330904166506 l -14.335815875620243 -0.9267114445904354" fill="#ff9d0e" stroke="none" /><path d="M 120.95626037817324 101.35467743843564 l 11.431106869506781 0.738942077117739 a32.45496572039481,32.45496572039481 0 0,0 -0.04083675632208495,0.5571850950608943 l -11.416693554520357 -0.9356003086754034" fill="#ff740a" stroke="none" /><path d="M 120.92983693683757 101.71520430193887 l 4.13206444845492 0.3386235038173889 a25.145916362340493,25.145916362340493 0 0,0 -0.039066460633535985,0.43109513773540975 l -4.125623391544309 -0.40970003010136924" fill="#ff0a01" stroke="none" /><path d="M 120.81339534386255 102.79330883721812 l 3.6741749678591895 0.49310096875822984 a24.707116164869046,24.707116164869046 0 0,0 -0.06019824024850447,0.4210263520906863 l -3.6651426765940838 -0.5562727928293254" fill="#ff0300" stroke="none" /><path d="M 120.64145759157962 103.86396538481128 l 6.665118492876427 1.2476728946043967 a27.780891694756217,27.780891694756217 0 0,0 -0.09203421415238124,0.4692804751679478 l -6.642654345748381 -1.3622170968402894" fill="#ff3104" stroke="none" /><path d="M 120.23288151984713 105.62410040840565 l 4.004765549689587 1.1131980158873729 a25.15660401416302,25.15660401416302 0 0,0 -0.11956258626448465,0.4162130479243984 l -3.985010326539003 -1.1819685393163533" fill="#ff0a01" stroke="none" /><path d="M 120.13307415673323 105.97154293290107 l 23.119835271568135 6.857427129656558 a45.11537040609154,45.11537040609154 0 0,0 -0.2272380160682671,0.7426269844147139 l -22.998370482993735 -7.2543810866233285" fill="#e2ff1b" stroke="none" /><path d="M 119.26925614724726 108.34839909993367 l 23.524710072570862 10.192073160234946 a46.63767421787902,46.63767421787902 0 0,0 -0.3254841401918395,0.7338808108290577 l -23.34578484764775 -10.595502307556691" fill="#d0ff1d" stroke="none" /><path d="M 118.81262510543309 109.33194174019688 l 21.90272252374572 10.864774554204224 a45.449388132750514,45.449388132750514 0 0,0 -0.353685688859726,0.6978554182902357 l -21.712458165099726 -11.240184184197155" fill="#deff1b" stroke="none" /><line stroke="#e1ed5e" stroke-width="0.3" x1="174.80103733775053" x2="179.2010983576182" y1="140.37084112569926" y2="142.7455964860345" /><path d="M 175.68104954172406 140.8457921977663 a86.0,86.0 0 0,1 -30.038265399797805,32.042727171017184" fill="none" id="id5" stroke="none" /><text fill="#e1ed5e" style="font-size:6.75px; font-family:Arial;" text-anchor="middle"><textPath startOffset="22.206326154141568" xlink:href="#id5">May</textPath></text><path d="M 118.48025628344425 109.97397251340804 l 7.268829107305416 3.923057159433105 a29.259918526679897,29.259918526679897 0 0,0 -0.2430295261228478,0.4411691826107198 l -7.200223171731059 -4.0475968604416295" fill="#ff4706" stroke="none" /><path d="M 117.94076556474637 110.91462005526583 l 4.900691912881549 2.9814329853416255 a26.73635109377605,26.73635109377605 0 0,0 -0.24258191855316544,0.39111929247209926 l -4.8486453546604205 -3.065348609178998" fill="#ff2103" stroke="none" /><path d="M 117.35343817320211 111.8261652097733 l 9.48748460224821 6.465609823915606 a32.48113559161335,32.48113559161335 0 0,0 -0.31883961072375366,0.45931223942941796 l -9.374784084362322 -6.627963325532043" fill="#ff750a" stroke="none" /><path d="M 116.93607887273984 112.41649034213515 l 5.012019993537154 3.6745044890237186 a27.214686448685214,27.214686448685214 0 0,0 -0.280231872616854,0.3754163882084041 l -4.948026854225208 -3.760233756741438" fill="#ff2903" stroke="none" /><path d="M 116.71984013943494 112.70617746262583 l 6.484752683686514 4.928062571951397 a29.14480313338804,29.14480313338804 0 0,0 -0.30698246507747207,0.39681621776536513 l -6.398963401390973 -5.038956783830015" fill="#ff4506" stroke="none" /><path d="M 116.498646956653 112.99209946851258 l 13.09556199759642 10.312290730012755 a37.66844576237384,37.66844576237384 0 0,0 -0.4055314698859985,0.505962861996808 l -12.916112615655567 -10.536181425587813" fill="#ffbc11" stroke="none" /><path d="M 114.81725581225074 114.88116024355365 l 26.84302990108172 26.95879955384411 a59.04372652165811,59.04372652165811 0 0,0 -0.7263785504181406,0.7109142940032885 l -26.375001398287786 -27.41686395076997" fill="#44ff2d" stroke="none" /><path d="M 112.92097659922987 116.55440617244103 l 5.351455444956928 6.85630581939281 a29.6975286644195,29.6975286644195 0 0,0 -0.40568418136013995,0.3110613310060103 l -5.232642535103294 -6.947406492226192" fill="#ff4d07" stroke="none" /><line stroke="#e1ed5e" stroke-width="0.3" x1="143.8653032363475" x2="146.44561519142675" y1="172.8068346515853" y2="177.08958963109032" /><path d="M 144.38136562736335 173.6633856474863 a86.0,86.0 0 0,1 -40.68145358897372,12.25698825130547" fill="none" id="id6" stroke="none" /><text fill="#e1ed5e" style="font-size:6.75px; font-family:Arial;" text-anchor="middle"><textPath startOffset="21.466115282336833" xlink:href="#id6">June</textPath></text><path d="M 101.62511606390274 120.93702456842531 l 0.3104223330364889 3.999295901219936 a25.011325183821725,25.011325183821725 0 0,0 -0.42952453635970855,0.02962252681729403 l -0.24153503589785 -4.004046772553515" fill="#ff0801" stroke="none" /><line stroke="#e1ed5e" stroke-width="0.3" x1="102.19456741930631" x2="102.32365962044197" y1="184.97166512339345" y2="189.96999836594603" /><path d="M 102.22038585953345 185.97133177190398 a86.0,86.0 0 0,1 -42.740103519485714,-10.115201625700543" fill="none" id="id7" stroke="none" /><text fill="#e1ed5e" style="font-size:6.75px; font-family:Arial;" text-anchor="middle"><textPath startOffset="22.20632615414155" xlink:href="#id7">July</textPath></text><path d="M 96.22490169976321 120.6578951692458 l -1.030017334050622 5.636406900447894 a26.729748550840725,26.729748550840725 0 0,0 -0.4519012566620838,-0.08660795137334176 l 1.1268862052844009 -5.617841750726084" fill="#ff2103" stroke="none" /><path d="M 95.51606077576429 120.51570834832081 l -0.9243594476297301 4.229292121999905 a25.32912834663432,25.32912834663432 0 0,0 -0.4251432083633654,-0.09676121007604818 l 0.9970228053859581 -4.21275417834617" fill="#ff0c01" stroke="none" /><path d="M 94.11515582081647 120.15858648285463 l -2.7709210116530603 9.49181476174905 a30.888000340017065,30.888000340017065 0 0,0 -0.5091004717703858,-0.15338779592956678 l 2.9338964578636917 -9.442711596713757" fill="#ff5e08" stroke="none" /><path d="M 93.76903079525671 120.05430185196036 l -2.3441992886215988 7.544778122058637 a28.900566259191088,28.900566259191088 0 0,0 -0.4738022894202124,-0.1516965308891984 l 2.4737229231327515 -7.503308744509732" fill="#ff4106" stroke="none" /><path d="M 93.42475214034765 119.94407469862007 l -1.3197165883471824 4.002970957264547 a25.21490549814135,25.21490549814135 0 0,0 -0.4110393015781591,-0.13944684810477292 l 1.3884256228625673 -3.9796611222616507" fill="#ff0b01" stroke="none" /><path d="M 93.08242187328487 119.8279376855182 l -1.4307105546714314 4.100862932719652 a25.34327174883201,25.34327174883201 0 0,0 -0.41065807837013296,-0.14724737638893154 l 1.501088193671291 -4.0756280152907625" fill="#ff0d01" stroke="none" /><path d="M 92.7421414339146 119.70592522655815 l -3.455970019414401 9.383358213404675 a30.999556996995423,30.999556996995423 0 0,0 -0.4991368268534804,-0.18873083847547747 l 3.6169770670281642 -9.322479124822562" fill="#ff6008" stroke="none" /><line stroke="#e1ed5e" stroke-width="0.3" x1="58.666819895761336" x2="56.23545636021788" y1="174.27360380694188" y2="178.64263932499728" /><path d="M 58.180547188652646 175.14741091055294 a86.0,86.0 0 0,1 -31.652253787137756,-30.449443065178592" fill="none" id="id8" stroke="none" /><text fill="#e1ed5e" style="font-size:6.75px; font-family:Arial;" text-anchor="middle"><textPath startOffset="22.20632615414155" xlink:href="#id8">August</textPath></text><path d="M 89.1626897886671 117.98757091392108 l -4.37183302223205 7.256289150880452 a29.471520301307432,29.471520301307432 0 0,0 -0.4322781553533296,-0.2655405495766171 l 4.496090377517688 -7.179960134475457" fill="#ff4a06" stroke="none" /><path d="M 88.8546689885994 117.79835938074946 l -2.3133520688903477 3.694270852448778 a25.358811182638206,25.358811182638206 0 0,0 -0.3679662498002781,-0.23485347034308063 l 2.3766001207375496 -3.6539029532818934" fill="#ff0d01" stroke="none" /><path d="M 88.24862548938628 117.40417183066458 l -3.762683308461017 5.572657631299424 a27.72400912815047,27.72400912815047 0 0,0 -0.3932097737843697,-0.2704532678870303 l 3.858049966868277 -5.507063574047293" fill="#ff3004" stroke="none" /><path d="M 87.36589467227662 116.77436683061367 l -6.884313186081625 9.14033813749858 a32.44288203696378,32.44288203696378 0 0,0 -0.4431871819656961,-0.3398170326603644 l 7.040629096540808 -9.02048176301085" fill="#ff740a" stroke="none" /><path d="M 87.07902340077011 116.55440617244103 l -10.162613013045318 13.020379868292167 a37.516930561322404,37.516930561322404 0 0,0 -0.5056612424583556,-0.4017278730412317 l 10.385231748221031 -12.843518081245806" fill="#ffba11" stroke="none" /><path d="M 86.24171649860922 115.8653595955263 l -7.496876911310461 8.645020872648514 a32.44288203696378,32.44288203696378 0 0,0 -0.41875672713659684,-0.3695041236882497 l 7.644575991353646 -8.514693607187976" fill="#ff740a" stroke="none" /><path d="M 84.19399662182784 113.82643327865904 l -20.867708525270583 18.254202071195788 a48.725027544651766,48.725027544651766 0 0,0 -0.5467817958222531,-0.6360307568559181 l 21.178832830663612 -17.89229421517834" fill="#b7ff1f" stroke="none" /><path d="M 83.72743513129214 113.27417163493432 l -10.799652926944669 8.809701955815145 a34.937121363206884,34.937121363206884 0 0,0 -0.37612654021840647,-0.46927569102185873 l 10.949697379217936 -8.622498431215027" fill="#ff970d" stroke="none" /><path d="M 82.44556493220864 111.52570212397912 l -13.933501991902675 9.148308839467836 a37.66835421931755,37.66835421931755 0 0,0 -0.3512038362253866,-0.5450761530361133 l 14.088910691505108 -8.907111086510275" fill="#ffbc11" stroke="none" /><path d="M 82.24976979558568 111.22182372390057 l -9.329441962897132 5.898140584337672 a32.0375064979223,32.0375064979223 0 0,0 -0.29067989736770616,-0.4686685490509961 l 9.429586499932794 -5.736675703921413" fill="#ff6f0a" stroke="none" /><line stroke="#e1ed5e" stroke-width="0.3" x1="26.63291911575756" x2="22.317208475507996" y1="142.92168965132927" y2="145.44649492493687" /><path d="M 25.769776987707644 143.4266507060508 a86.0,86.0 0 0,1 -11.730757126820373,-40.83630448921669" fill="none" id="id9" stroke="none" /><text fill="#e1ed5e" style="font-size:6.75px; font-family:Arial;" text-anchor="middle"><textPath startOffset="21.46611528233685" xlink:href="#id9">September</textPath></text><path d="M 81.51974371655577 109.97397251340807 l -25.60417987739539 13.818822770021795 a50.09525545416798,50.09525545416798 0 0,0 -0.40302227422929887,-0.7623662599322348 l 25.83825465984957 -13.376041495003435" fill="#a7ff21" stroke="none" /><path d="M 80.87730276802145 108.67885076344099 l -11.497071543210298 5.217954712647117 a33.6257556388888,33.6257556388888 0 0,0 -0.23467401292983767,-0.5291279470267103 l 11.585186640871417 -5.019278429127711" fill="#ff850c" stroke="none" /><path d="M 79.4281124754447 104.21870165774334 l -27.08170806390745 5.553678366525938 a48.645293542618205,48.645293542618205 0 0,0 -0.16115506343706326,-0.8217261965235079 l 27.173293060320177 -5.086688442934475" fill="#b8ff1f" stroke="none" /><line stroke="#e1ed5e" stroke-width="0.3" x1="15.007084014347285" x2="10.007500721073583" y1="101.09737516637583" y2="101.16192664675087" /><path d="M 14.007167355692545 101.11028546245083 a86.0,86.0 0 0,1 10.666146001902534,-42.60595125391555" fill="none" id="id10" stroke="none" /><text fill="#e1ed5e" style="font-size:6.75px; font-family:Arial;" text-anchor="middle"><textPath startOffset="22.20632615414155" xlink:href="#id10">October</textPath></text><path d="M 79.00019446554 99.90962569577889 l -25.758169536597006 -0.11085229556338702 a46.75840806625102,46.75840806625102 0 0,0 0.010391483696768823,-0.8048318641315478 l 25.752445045782522 0.5542204177554069" fill="#ceff1d" stroke="none" /><path d="M 79.00486145842228 99.54816195383935 l -12.70401269505412 -0.2734040674780883 a33.70695432982309,33.70695432982309 0 0,0 0.017476743700606256,-0.5799680399403535 l 12.697424256897868 0.4920422548434363" fill="#ff860c" stroke="none" /><path d="M 79.01574976396665 99.18683210126434 l -14.040291317973562 -0.5440801582259047 a35.050829282008195,35.050829282008195 0 0,0 0.028552057973275428,-0.602688817018389 l 14.028845651766789 0.7856800818673028" fill="#ff990e" stroke="none" /><path d="M 79.03285615573316 98.82574320788736 l -7.607116448279747 -0.42603361831882625 a28.619037032435667,28.619037032435667 0 0,0 0.03177995379139108,-0.49162181901231194 l 7.598655903483943 0.55691450158415" fill="#ff3d05" stroke="none" /><path d="M 79.21141760316559 97.0276538004421 l -7.141264474486586 -1.0210561699488616 a28.213890351034927,28.213890351034927 0 0,0 0.07287796546158959,-0.48017473592057486 l 7.122630615585694 1.1438300182615284" fill="#ff3705" stroke="none" /><path d="M 79.54389044137918 95.25157060432595 l -6.344797886411977 -1.4728032574870729 a27.51349442731645,27.51349442731645 0 0,0 0.111059137030633,-0.4604118224007565 l 6.31850594912053 1.5818003115472261" fill="#ff2d04" stroke="none" /><path d="M 79.81627453868168 94.20196356495316 l -21.961787437782668 -6.308807756380423 a43.849970738915935,43.849970738915935 0 0,0 0.2146437335135602,-0.7236719642920194 l 21.849937807157403 6.685909107418982" fill="#f2ff19" stroke="none" /><path d="M 79.91906864156998 93.8553929516997 l -21.651514086360585 -6.625193009564972 a43.64246551605764,43.64246551605764 0 0,0 0.225994228557454,-0.7164634630191341 l 21.53426437403493 6.99690663901052" fill="#f4ff19" stroke="none" /><path d="M 80.803312248108 91.48605970444005 l -10.477110212314669 -4.646712598055195 a32.461316519925326,32.461316519925326 0 0,0 0.23093549887600576,-0.5088357601128912 l 10.39557239647531 4.826370367010157" fill="#ff750a" stroke="none" /><line stroke="#e1ed5e" stroke-width="0.3" x1="26.266209847984243" x2="21.928928074336255" y1="57.711370442889674" y2="55.22380399835377" /><path d="M 25.398753493254645 57.213857153982495 a86.0,86.0 0 0,1 29.58750427330803,-30.492523968695096" fill="none" id="id11" stroke="none" /><text fill="#e1ed5e" style="font-size:6.75px; font-family:Arial;" text-anchor="middle"><textPath startOffset="21.46611528233685" xlink:href="#id11">November</textPath></text><path d="M 82.54541684631803 88.32363383020206 l -6.031364145831335 -4.034723467759328 a28.25646931509447,28.25646931509447 0 0,0 0.2739202780540571,-0.4019442080573267 l 5.961019402108539 4.13794569908707" fill="#ff3805" stroke="none" /><path d="M 83.39014120810768 87.1503855733568 l -29.130621346793756 -22.535847956609658 a57.8301173385818,57.8301173385818 0 0,0 0.6158795124545554,-0.7821044372735698 l 28.73838775374523 23.033944787836276" fill="#51ff2b" stroke="none" /><path d="M 84.07557802195018 86.31012108654704 l -6.075630668371575 -5.2230874243043734 a29.01211147328741,29.01211147328741 0 0,0 0.3288151707347143,-0.3758925815994103 l 5.984823634059017 5.326895562106727" fill="#ff4306" stroke="none" /><path d="M 85.05521093208273 85.24692304244772 l -10.846401747211326 -10.707263847079414 a36.24106065708298,36.24106065708298 0 0,0 0.4420791573480728,-0.44018072895412663 l 10.660486789695941 10.892380426683651" fill="#ffa90f" stroke="none" /><path d="M 86.93701828274178 83.55741782278169 l -15.008226414354743 -18.891092515753858 a45.12716801747165,45.12716801747165 0 0,0 0.6123701791823897,-0.47796463810668355 l 14.680823680012928 19.14663554308376" fill="#e2ff1b" stroke="none" /><path d="M 88.70189139769569 82.29822771554957 l -4.608905458130556 -7.2211905348252605 a29.566656422562748,29.566656422562748 0 0,0 0.43136463125064106,-0.2701204925156853 l 4.483921674507672 7.299455368663876" fill="#ff4b07" stroke="none" /><path d="M 89.00827224532344 82.1063720568725 l -3.5311425974586967 -5.748409464214758 a27.746345633886627,27.746345633886627 0 0,0 0.40911053009940984,-0.2464845168159327 l 3.431670001141638 5.80834059048931" fill="#ff3004" stroke="none" /><line stroke="#e1ed5e" stroke-width="0.3" x1="56.762969772571076" x2="54.21961505331055" y1="26.818313649435495" y2="22.513508569990535" /><path d="M 56.25429882871897 25.957352633546506 a86.0,86.0 0 0,1 42.265352541879196,-11.944610805530505" fill="none" id="id12" stroke="none" /><text fill="#e1ed5e" style="font-size:6.75px; font-family:Arial;" text-anchor="middle"><textPath startOffset="22.20632615414155" xlink:href="#id12">December</textPath></text><path d="M 90.91171255644093 81.06846463323043 l -27.264862330677197 -56.79460610030868 a84.0,84.0 0 0,0 1.3088871548015661,-0.6145400694399696 l 26.28319696457602 57.25551115238866" fill="#4dd2ff" stroke="none" /><path d="M 96.04723909329186 79.375362276772 l -2.153791421260951 -11.238010303005508 a32.44253875050267,32.44253875050267 0 0,0 0.5493678601660569,-0.10039346497435735 l 1.960028439992001 11.273419249330601" fill="#ff740a" stroke="none" /></svg>