<?xml version="1.0" encoding="utf-8" ?>
<svg baseProfile="full" height="200mm" version="1.1" viewBox="0,0,200,200" width="200mm" xmlns="http://www.w3.org/2000/svg" xmlns:ev="http://www.w3.org/2001/xml-events" xmlns:xlink="http://www.w3.org/1999/xlink"><defs /><rect fill="#1a1a1a" height="200" width="200" x="0" y="0" /><rect fill="#1a1a1a" height="200" width="180" x="10" y="0" /><text alignment-baseline="middle" fill="#e1ed5e" style="dominant-baseline: central; font-size:9.0px; font-family:Arial;" text-anchor="middle" x="100.0" y="100.0">2026</text><line stroke="#e1ed5e" stroke-width="0.3" x1="100.0" x2="100.0" y1="15.0" y2="10.0" /><path d="M 100.0 14.0 a86.0,86.0 0 0,1 42.46469731375804,11.215312516191453" fill="none" id="id13" stroke="none" /><text fill="#e1ed5e" style="font-size:6.75px; font-family:Arial;" text-anchor="middle"><textPath startOffset="22.20632615414155" xlink:href="#id13">January</textPath></text><path d="M 100.0 79.0 l 0.0 -21.593790225702904 a42.593790225702904,42.593790225702904 0 0,0 0.7331820811819343,0.006310729646576924 l -0.37170160190940593 21.590590872664887" fill="#eaff1a" stroke="none" /><path d="M 105.36241919743992 79.69619591428918 l 0.5524502269781104 -2.091750152808842 a23.16347404769828,23.16347404769828 0 0,0 0.3846262996830564,0.10513289704602367 l -0.5883744158848777 2.0819307149365245" fill="#ff1602" stroke="none" /><path d="M 105.71112130821622 79.79150937346287 l 0.24963804075697127 -0.8833305640709664 a21.917928121812874,21.917928121812874 0 0,0 0.3621778793097076,0.10572965454187556 l -0.264806137790106 0.8789025806103874" fill="#ff0400" stroke="none" /><path d="M 106.0581310904928 79.89281104454417 l 1.301007079355781 -4.318096585603018 a25.50983121004881,25.50983121004881 0 0,0 0.41935080349473747,0.13029433594092868 l -1.3751432555612368 4.295062114779569" fill="#ff3705" stroke="none" /><path d="M 107.08798089147638 80.2323363322302 l 0.2217956498763607 -0.6185656926647113 a21.657127709388252,21.657127709388252 0 0,0 0.3498324043821415,0.12884622689105069 l -0.23241038003107867 0.6146561979673358" fill="#ff0000" stroke="none" /><path d="M 108.09893153111575 80.62456947434976 l 0.33550164054767484 -0.802635347971341 a21.86993382082964,21.86993382082964 0 0,0 0.34608258212917137,0.14817450035476984 l -0.3492679804671615 0.7967413196537803" fill="#ff0300" stroke="none" /><path d="M 108.76106565485865 80.91482961587045 l 0.27278817123439647 -0.5942437748878576 a21.653864703404594,21.653864703404594 0 0,0 0.33741030192974053,0.1584186609342187 l -0.282976684463735 0.5894601313136361" fill="#ff0000" stroke="none" /><path d="M 109.41281617654863 81.2277094730956 l 0.3114874204384186 -0.6212096616222289 a21.694928670285076,21.694928670285076 0 0,0 0.33238646534163085,0.17026125750833876 l -0.322134373368805 0.6157558788013896" fill="#ff0100" stroke="none" /><line stroke="#e1ed5e" stroke-width="0.3" x1="143.23703022742887" x2="145.7803849466894" y1="26.81831364943548" y2="22.513508569990506" /><path d="M 143.74570117128098 25.957352633546492 a86.0,86.0 0 0,1 28.547481713284135,27.462654790039103" fill="none" id="id14" stroke="none" /><text fill="#e1ed5e" style="font-size:6.75px; font-family:Arial;" text-anchor="middle"><textPath startOffset="19.985693538727396" xlink:href="#id14">February</textPath></text><path d="M 111.60114157652 82.49532879139004 l 0.40639462641855617 -0.6131986468297741 a21.735642014063732,21.735642014063732 0 0,0 0.3100903005463539,0.2093743551421731 l -0.4168896213714519 0.6061123793889309" fill="#ff0100" stroke="none" /><path d="M 112.48926042617603 83.11751280151076 l 3.8160397725395745 -5.158371305461731 a27.416459621209725,27.416459621209725 0 0,0 0.37698134123582355,0.283934530575996 l -3.904267267533781 5.091920185379887" fill="#ff5207" stroke="none" /><path d="M 116.60985879189232 87.15038557335679 l 3.600180349174964 -2.7851488644718096 a25.551741726400365,25.551741726400365 0 0,0 0.2661324135592003,0.3501990605530413 l -3.6475887029582776 2.722765028037735" fill="#ff3805" stroke="none" /><line stroke="#e1ed5e" stroke-width="0.3" x1="172.23445277983987" x2="176.4835382374775" y1="55.19839476539836" y2="52.563006222186495" /><path d="M 173.08426987136738 54.67131705675599 a86.0,86.0 0 0,1 12.851231095245387,41.99856678651699" fill="none" id="id15" stroke="none" /><text fill="#e1ed5e" style="font-size:6.75px; font-family:Arial;" text-anchor="middle"><textPath startOffset="22.20632615414155" xlink:href="#id15">March</textPath></text><path d="M 118.03404312379186 89.2402003453031 l 0.6239060454139592 -0.3722462015826055 a21.726516337116216,21.726516337116216 0 0,0 0.18885549356204506,0.3228152569052236 l -0.6302212134463316 0.36145153232348665" fill="#ff0100" stroke="none" /><path d="M 118.21658344932153 89.55222093294921 l 1.6432442721244276 -0.9424518684370606 a22.894325014930185,22.894325014930185 0 0,0 0.19312165400773273,0.34354187338651654 l -1.6592235674245934 0.9140264851157502" fill="#ff1202" stroke="none" /><path d="M 118.3937258080291 89.86733742301442 l 1.7102615747553478 -0.9421420997705314 a22.95259478393359,22.95259478393359 0 0,0 0.18765593458675753,0.347697946792071 l -1.72622560856057 0.9125631696460017" fill="#ff1302" stroke="none" /><path d="M 118.73160827565052 90.50648371742162 l 0.8884671323724446 -0.4502911369696904 a21.996060215719698,21.996060215719698 0 0,0 0.16825937276806036,0.3392006281743117 l -0.896086518093913 0.4349309202964289" fill="#ff0500" stroke="none" /><path d="M 119.04729006885535 91.15688171328212 l 5.730791962038482 -2.660644690855167 a27.318307264065325,27.318307264065325 0 0,0 0.194347229034987,0.42821835747715753 l -5.775741508036815 2.5616043245359466" fill="#ff5007" stroke="none" /><path d="M 119.47837535516314 92.15188598940014 l 1.7580176271189023 -0.7083302646499293 a22.8953516141022,22.8953516141022 0 0,0 0.1441387219576539,0.3668173254202664 l -1.7699498989582567 0.6779639343338786" fill="#ff1202" stroke="none" /><path d="M 119.85752413597 93.16781622104841 l 15.685443359801138 -5.396736821504175 a37.58788418437109,37.58788418437109 0 0,0 0.2052346915225368,0.6136256048877795 l -15.776015345095445 5.125938113694081" fill="#ffd714" stroke="none" /><path d="M 120.91429891909075 98.10471618934814 l 15.905381030805875 -1.4413684764933152 a36.97055693519008,36.97055693519008 0 0,0 0.051979751285345016,0.6342846255631805 l -15.927835265910714 1.167369933722366" fill="#ffd013" stroke="none" /><line stroke="#e1ed5e" stroke-width="0.3" x1="184.98032266829074" x2="189.97916517819016" y1="98.17113171792111" y2="98.06355123074" /><path d="M 185.9800911702706 98.14961562048488 a86.0,86.0 0 0,1 -9.607161424134198,41.387399972396054" fill="none" id="id16" stroke="none" /><text fill="#e1ed5e" style="font-size:6.75px; font-family:Arial;" text-anchor="middle"><textPath startOffset="21.466115282336823" xlink:href="#id16">April</textPath></text><path d="M 120.99513854157772 99.54816195383933 l 1.8949791627002541 -0.040781997255890365 a22.895417948202542,22.895417948202542 0 0,0 0.005088226314342328,0.3940887354679492 l -1.895400396132312 0.008157003727478414" fill="#ff1202" stroke="none" /><path d="M 120.95626037817324 101.35467743843564 l 1.077496485436214 0.06965270293808858 a22.079745421455435,22.079745421455435 0 0,0 -0.02778204085000888,0.37906387446414885 l -1.0761378859218673 -0.08818971389900766" fill="#ff0601" stroke="none" /><path d="M 120.89721153311464 102.0752229133903 l 1.9164922249478908 0.1903195826985746 a22.925918999294694,22.925918999294694 0 0,0 -0.04237768626313942,0.3923647434532312 l -1.9129322371836996 -0.22328064803659722" fill="#ff1202" stroke="none" /><path d="M 120.70491114924044 103.5080841355445 l 6.619845509906257 1.1216167432773343 a27.714192333693315,27.714192333693315 0 0,0 -0.08374114767946776,0.46966482810164956 l -6.599557919887601 -1.235400322112202" fill="#ff5607" stroke="none" /><path d="M 119.41010516605496 108.01547362559984 l 3.9805176802648012 1.643769274274421 a25.306564573990425,25.306564573990425 0 0,0 -0.1697335614114298,0.401200000693125 l -3.9516331376610627 -1.7120438006337093" fill="#ff3405" stroke="none" /><line stroke="#e1ed5e" stroke-width="0.3" x1="174.80103733775053" x2="179.2010983576182" y1="140.37084112569926" y2="142.7455964860345" /><path d="M 175.68104954172406 140.8457921977663 a86.0,86.0 0 0,1 -30.038265399797805,32.042727171017184" fill="none" id="id17" stroke="none" /><text fill="#e1ed5e" style="font-size:6.75px; font-family:Arial;" text-anchor="middle"><textPath startOffset="22.206326154141568" xlink:href="#id17">May</textPath></text><path d="M 118.30583269289576 110.29060199501025 l 0.6219120753558587 0.3496071307295217 a21.713442201814807,21.713442201814807 0 0,0 -0.1859580588884321,0.32423355012341204 l -0.615802020315047 -0.36026052671124886" fill="#ff0100" stroke="none" /><path d="M 117.94076556474637 110.91462005526583 l 0.8456508684320486 0.5144684542602954 a21.989850080420695,21.989850080420695 0 0,0 -0.19951638136763963,0.32168393416347013 l -0.8366698473964461 -0.528948719789039" fill="#ff0500" stroke="none" /><path d="M 117.75023020441432 111.22182372390056 l 3.626484239720942 2.292689526107173 a25.29043275253976,25.29043275253976 0 0,0 -0.23579732076366874,0.36596267819694606 l -3.586482055580223 -2.354773804225572" fill="#ff3404" stroke="none" /><path d="M 117.55443506779139 111.5257021239791 l 2.641177441784147 1.7341158706058677 a24.159584803684908,24.159584803684908 0 0,0 -0.2312381676241429,0.34566968579150775 l -2.610936168749283 -1.7793224706031823" fill="#ff2403" stroke="none" /><path d="M 115.32070863581623 114.36230785411682 l 3.429603803709495 3.215061836720424 a25.700936594377204,25.700936594377204 0 0,0 -0.30534358589151145,0.3201515290596806 l -3.3737536664390193 -3.273620482362612" fill="#ff3a05" stroke="none" /><line stroke="#e1ed5e" stroke-width="0.3" x1="143.8653032363475" x2="146.44561519142675" y1="172.8068346515853" y2="177.08958963109032" /><path d="M 144.38136562736335 173.6633856474863 a86.0,86.0 0 0,1 -40.68145358897372,12.25698825130547" fill="none" id="id18" stroke="none" /><text fill="#e1ed5e" style="font-size:6.75px; font-family:Arial;" text-anchor="middle"><textPath startOffset="21.466115282336833" xlink:href="#id18">June</textPath></text><path d="M 110.21172684928248 118.3499491758327 l 1.1020681553464762 1.9803599271099246 a23.266358237333986,23.266358237333986 0 0,0 -0.3516291121629411,0.19173622821317687 l -1.0678162313148865 -1.999036807082872" fill="#ff1702" stroke="none" /><path d="M 105.18746579009965 120.34920634021253 l 15.562397370298964 61.04761902063758 a84.0,84.0 0 0,0 -1.4041868610271555,0.3451149667438802 l -14.509257224528598 -61.306455245695496" fill="#4dd2ff" stroke="none" /><line stroke="#e1ed5e" stroke-width="0.3" x1="102.19456741930631" x2="102.32365962044197" y1="184.97166512339345" y2="189.96999836594603" /><path d="M 102.22038585953345 185.97133177190398 a86.0,86.0 0 0,1 -42.740103519485714,-10.115201625700543" fill="none" id="id19" stroke="none" /><text fill="#e1ed5e" style="font-size:6.75px; font-family:Arial;" text-anchor="middle"><textPath startOffset="22.20632615414155" xlink:href="#id19">July</textPath></text><line stroke="#e1ed5e" stroke-width="0.3" x1="58.666819895761336" x2="56.23545636021788" y1="174.27360380694188" y2="178.64263932499728" /><path d="M 58.180547188652646 175.14741091055294 a86.0,86.0 0 0,1 -31.652253787137756,-30.449443065178592" fill="none" id="id20" stroke="none" /><text fill="#e1ed5e" style="font-size:6.75px; font-family:Arial;" text-anchor="middle"><textPath startOffset="22.20632615414155" xlink:href="#id20">August</textPath></text><line stroke="#e1ed5e" stroke-width="0.3" x1="26.63291911575756" x2="22.317208475507996" y1="142.92168965132927" y2="145.44649492493687" /><path d="M 25.769776987707644 143.4266507060508 a86.0,86.0 0 0,1 -11.730757126820373,-40.83630448921669" fill="none" id="id21" stroke="none" /><text fill="#e1ed5e" style="font-size:6.75px; font-family:Arial;" text-anchor="middle"><textPath startOffset="21.46611528233685" xlink:href="#id21">September</textPath></text><line stroke="#e1ed5e" stroke-width="0.3" x1="15.007084014347285" x2="10.007500721073583" y1="101.09737516637583" y2="101.16192664675087" /><path d="M 14.007167355692545 101.11028546245083 a86.0,86.0 0 0,1 10.666146001902534,-42.60595125391555" fill="none" id="id22" stroke="none" /><text fill="#e1ed5e" style="font-size:6.75px; font-family:Arial;" text-anchor="middle"><textPath startOffset="22.20632615414155" xlink:href="#id22">October</textPath></text><line stroke="#e1ed5e" stroke-width="0.3" x1="26.266209847984243" x2="21.928928074336255" y1="57.711370442889674" y2="55.22380399835377" /><path d="M 25.398753493254645 57.213857153982495 a86.0,86.0 0 0,1 29.58750427330803,-30.492523968695096" fill="none" id="id23" stroke="none" /><text fill="#e1ed5e" style="font-size:6.75px; font-family:Arial;" text-anchor="middle"><textPath startOffset="21.46611528233685" xlink:href="#id23">November</textPath></text><line stroke="#e1ed5e" stroke-width="0.3" x1="56.762969772571076" x2="54.21961505331055" y1="26.818313649435495" y2="22.513508569990535" /><path d="M 56.25429882871897 25.957352633546506 a86.0,86.0 0 0,1 42.265352541879196,-11.944610805530505" fill="none" id="id24" stroke="none" /><text fill="#e1ed5e" style="font-size:6.75px; font-family:Arial;" text-anchor="middle"><textPath startOffset="22.20632615414155" xlink:href="#id24">December</textPath></text></svg>