<?xml version="1.0" encoding="utf-8" ?>
<svg baseProfile="full" height="200mm" version="1.1" viewBox="0,0,200,200" width="200mm" xmlns="http://www.w3.org/2000/svg" xmlns:ev="http://www.w3.org/2001/xml-events" xmlns:xlink="http://www.w3.org/1999/xlink"><defs /><rect fill="#1a1a1a" height="200" width="200" x="0" y="0" /><rect fill="#1a1a1a" height="200" width="180" x="10" y="0" /><text alignment-baseline="middle" fill="#e1ed5e" style="dominant-baseline: central; font-size:9.0px; font-family:Arial;" text-anchor="middle" x="100.0" y="100.0">2026</text><line stroke="#e1ed5e" stroke-width="0.3" x1="100.0" x2="100.0" y1="15.0" y2="10.0" /><path d="M 100.0 14.0 a86.0,86.0 0 0,1 42.46469731375804,11.215312516191453" fill="none" id="id13" stroke="none" /><text fill="#e1ed5e" style="font-size:6.75px; font-family:Arial;" text-anchor="middle"><textPath startOffset="22.20632615414155" xlink:href="#id13">January</textPath></text><path d="M 100.0 79.0 l 0.0 -27.75648137197878 a48.75648137197878,48.75648137197878 0 0,0 0.8392626787611901,0.007223798840781477 l -0.4777821994886617 27.752368949746558" fill="#a4ff21" stroke="none" /><path d="M 105.36241919743992 79.69619591428918 l 0.7101150040723907 -2.6887185410444756 a23.780911849010153,23.780911849010153 0 0,0 0.3948787694254622,0.1079352843159114 l -0.7562916627215637 2.6760967159022706" fill="#ff1c02" stroke="none" /><path d="M 105.71112130821622 79.79150937346287 l 0.32088269616329423 -1.1354258835834894 a22.179897301381935,22.179897301381935 0 0,0 0.36650673016520435,0.10699336481150137 l -0.3403796440519257 1.1297341898532844" fill="#ff0500" stroke="none" /><path d="M 106.0581310904928 79.89281104454417 l 1.672303860763091 -5.550446039715288 a26.796900158059845,26.796900158059845 0 0,0 0.44050866193203453,0.13686818554857438 l -1.7675978954058436 5.520837719284192" fill="#ff4706" stroke="none" /><path d="M 107.08798089147638 80.2323363322302 l 0.2850943146076947 -0.795099283003906 a21.84466658395781,21.84466658395781 0 0,0 0.3528617615658898,0.1299619647076221 l -0.2987384019461609 0.7900740504899592" fill="#ff0000" stroke="none" /><path d="M 108.09893153111575 80.62456947434976 l 0.4312510651810187 -1.0317009126976002 a22.11820581937353,22.11820581937353 0 0,0 0.35001138296736156,0.14985660783793392 l -0.4489462059386955 1.0241247768968755" fill="#ff0400" stroke="none" /><path d="M 108.76106565485865 80.91482961587045 l 0.35063968456779937 -0.7638360887870622 a21.84047234274979,21.84047234274979 0 0,0 0.3403180202883927,0.15978387369185237 l -0.36373591615579004 0.757687232455207" fill="#ff0000" stroke="none" /><path d="M 109.41281617654863 81.2277094730956 l 0.4003833830298896 -0.7984978190807341 a21.893255629975624,21.893255629975624 0 0,0 0.3354250186420519,0.1718177225268649 l -0.414068889260697 0.7914875712413687" fill="#ff0100" stroke="none" /><line stroke="#e1ed5e" stroke-width="0.3" x1="143.23703022742887" x2="145.7803849466894" y1="26.81831364943548" y2="22.513508569990506" /><path d="M 143.74570117128098 25.957352633546492 a86.0,86.0 0 0,1 28.547481713284135,27.462654790039103" fill="none" id="id14" stroke="none" /><text fill="#e1ed5e" style="font-size:6.75px; font-family:Arial;" text-anchor="middle"><textPath startOffset="19.985693538727396" xlink:href="#id14">February</textPath></text><path d="M 111.60114157652 82.49532879139004 l 0.5223763294890361 -0.7882005261769258 a21.9455882291336,21.9455882291336 0 0,0 0.3130854862826419,0.21139671792153575 l -0.5358665101782198 0.77909189595672" fill="#ff0200" stroke="none" /><path d="M 112.48926042617603 83.11751280151076 l 4.905106317794519 -6.630528293239348 a29.247664726231008,29.247664726231008 0 0,0 0.40216074682307024,0.30289913684048797 l -5.018513218375972 6.545112566893013" fill="#ff6809" stroke="none" /><path d="M 116.60985879189232 87.15038557335679 l 4.62764238020128 -3.5800075747185423 a26.8507715930531,26.8507715930531 0 0,0 0.27966237004512484,0.3680028973248455 l -4.688580690470518 3.499819901512663" fill="#ff4706" stroke="none" /><line stroke="#e1ed5e" stroke-width="0.3" x1="172.23445277983987" x2="176.4835382374775" y1="55.19839476539836" y2="52.563006222186495" /><path d="M 173.08426987136738 54.67131705675599 a86.0,86.0 0 0,1 12.851231095245387,41.99856678651699" fill="none" id="id15" stroke="none" /><text fill="#e1ed5e" style="font-size:6.75px; font-family:Arial;" text-anchor="middle"><textPath startOffset="22.20632615414155" xlink:href="#id15">March</textPath></text><path d="M 118.03404312379186 89.2402003453031 l 0.8019637287568302 -0.4784822234551051 a21.933858158610878,21.933858158610878 0 0,0 0.19065779087592843,0.32589596723790826 l -0.8100811941030859 0.46460684386330153" fill="#ff0100" stroke="none" /><path d="M 118.21658344932153 89.55222093294921 l 2.1122127496886827 -1.2114199247486843 a23.43494988326773,23.43494988326773 0 0,0 0.19768201421503181,0.35165424533663514 l -2.1327524051961477 1.174882169477255" fill="#ff1702" stroke="none" /><path d="M 118.3937258080291 89.86733742301442 l 2.198356242453615 -1.2110217506378715 a23.509849367841184,23.509849367841184 0 0,0 0.19221193928820124,0.35613953156665024 l -2.218876280960281 1.1730012357387625" fill="#ff1802" stroke="none" /><path d="M 118.73160827565052 90.50648371742162 l 1.142028386473705 -0.5788005451858792 a22.28032765596124,22.28032765596124 0 0,0 0.17043388314511604,0.3435843084040341 l -1.151822282572229 0.5590566482828953" fill="#ff0601" stroke="none" /><path d="M 119.04729006885535 91.15688171328212 l 7.366313124208791 -3.419970928089895 a29.121500489002678,29.121500489002678 0 0,0 0.2071754618860837,0.456483668117847 l -7.424090903058222 3.292665251129985" fill="#ff6709" stroke="none" /><path d="M 119.47837535516314 92.15188598940014 l 2.259741481634576 -0.9104819297800957 a23.436269465448376,23.436269465448376 0 0,0 0.1475440947639442,0.3754836277705071 l -2.275079126280221 0.8714492971138041" fill="#ff1702" stroke="none" /><path d="M 119.85752413597 93.16781622104841 l 20.16194062630692 -6.936921378316142 a42.32193068246084,42.32193068246084 0 0,0 0.23108319546926276,0.6909093416288077 l -20.27836111554795 6.58883893376502" fill="#efff19" stroke="none" /><path d="M 120.91429891909075 98.10471618934814 l 20.444646710066714 -1.8527232528323698 a41.52842328458344,41.52842328458344 0 0,0 0.05838800636380188,0.7124815690352501 l -20.47350920025001 1.5005277665893508" fill="#f8ff18" stroke="none" /><line stroke="#e1ed5e" stroke-width="0.3" x1="184.98032266829074" x2="189.97916517819016" y1="98.17113171792111" y2="98.06355123074" /><path d="M 185.9800911702706 98.14961562048488 a86.0,86.0 0 0,1 -9.607161424134198,41.387399972396054" fill="none" id="id16" stroke="none" /><text fill="#e1ed5e" style="font-size:6.75px; font-family:Arial;" text-anchor="middle"><textPath startOffset="21.466115282336823" xlink:href="#id16">April</textPath></text><path d="M 120.99513854157772 99.54816195383933 l 2.435790719462055 -0.052420845776201125 a23.43635473075851,23.43635473075851 0 0,0 0.005208442891197306,0.4033996418286832 l -2.436332169470968 0.010484945887055189" fill="#ff1702" stroke="none" /><path d="M 120.95626037817324 101.35467743843564 l 1.3850051711062876 0.08953101476867288 a22.387895935074624,22.387895935074624 0 0,0 -0.028169774041397967,0.38435418580519815 l -1.383258838400552 -0.11335833707064129" fill="#ff0801" stroke="none" /><path d="M 120.89721153311464 102.0752229133903 l 2.463443433751182 0.2446352352542502 a23.475560532408714,23.475560532408714 0 0,0 -0.04339367765908797,0.4017715619601865 l -2.4588674545910423 -0.2870031190992281" fill="#ff1802" stroke="none" /><path d="M 120.70491114924044 103.5080841355445 l 8.509095284364758 1.4417169897399724 a29.63036792013547,29.63036792013547 0 0,0 -0.08953105996816044,0.5021377310310563 l -8.483017782057408 -1.587973471504247" fill="#ff6e0a" stroke="none" /><path d="M 119.41010516605496 108.01547362559984 l 5.116524875359426 2.112887583159055 a26.535622886291975,26.535622886291975 0 0,0 -0.17797697366595885,0.4206849921982173 l -5.079396920501158 -2.200647101023436" fill="#ff4306" stroke="none" /><line stroke="#e1ed5e" stroke-width="0.3" x1="174.80103733775053" x2="179.2010983576182" y1="140.37084112569926" y2="142.7455964860345" /><path d="M 175.68104954172406 140.8457921977663 a86.0,86.0 0 0,1 -30.038265399797805,32.042727171017184" fill="none" id="id17" stroke="none" /><text fill="#e1ed5e" style="font-size:6.75px; font-family:Arial;" text-anchor="middle"><textPath startOffset="22.206326154141568" xlink:href="#id17">May</textPath></text><path d="M 118.30583269289576 110.29060199501025 l 0.7994006959499221 0.4493821469125174 a21.917052772008745,21.917052772008745 0 0,0 -0.18770181863184426,0.3272739422179973 l -0.7915468811656983 -0.4630759349888298" fill="#ff0100" stroke="none" /><path d="M 117.94076556474637 110.91462005526583 l 1.0869927109365434 0.6612935440184762 a22.272345198831548,22.272345198831548 0 0,0 -0.20207949132851838,0.3258164835323851 l -1.075448579940062 -0.6799063589161348" fill="#ff0601" stroke="none" /><path d="M 117.75023020441432 111.22182372390056 l 4.661453186007894 2.947004368291863 a26.51488717491795,26.51488717491795 0 0,0 -0.24721361699786457,0.38368102347510724 l -4.610034705632979 -3.026806991688423" fill="#ff4306" stroke="none" /><path d="M 117.55443506779139 111.5257021239791 l 3.3949478853282637 2.2290183592703547 a25.06130446901721,25.06130446901721 0 0,0 -0.23986877964899414,0.3585712797518435 l -3.3560760002685486 -2.287126553228005" fill="#ff2e04" stroke="none" /><path d="M 115.32070863581623 114.36230785411682 l 4.408384683556938 4.132614193615264 a27.04254545630314,27.04254545630314 0 0,0 -0.32128275835162784,0.3368636876601409 l -4.336595373826346 -4.207884997857912" fill="#ff4a06" stroke="none" /><line stroke="#e1ed5e" stroke-width="0.3" x1="143.8653032363475" x2="146.44561519142675" y1="172.8068346515853" y2="177.08958963109032" /><path d="M 144.38136562736335 173.6633856474863 a86.0,86.0 0 0,1 -40.68145358897372,12.25698825130547" fill="none" id="id18" stroke="none" /><text fill="#e1ed5e" style="font-size:6.75px; font-family:Arial;" text-anchor="middle"><textPath startOffset="21.466115282336833" xlink:href="#id18">June</textPath></text><path d="M 110.21172684928248 118.3499491758327 l 1.4165893946730586 2.5455384558294054 a23.913158345028044,23.913158345028044 0 0,0 -0.3614043311849885,0.1970664570264742 l -1.3725622516194211 -2.56954556461565" fill="#ff1e03" stroke="none" /><path d="M 105.18746579009965 120.34920634021253 l 15.562397370298964 61.04761902063758 a84.0,84.0 0 0,0 -1.4041868610271555,0.3451149667438802 l -14.509257224528598 -61.306455245695496" fill="#4dd2ff" stroke="none" /><line stroke="#e1ed5e" stroke-width="0.3" x1="102.19456741930631" x2="102.32365962044197" y1="184.97166512339345" y2="189.96999836594603" /><path d="M 102.22038585953345 185.97133177190398 a86.0,86.0 0 0,1 -42.740103519485714,-10.115201625700543" fill="none" id="id19" stroke="none" /><text fill="#e1ed5e" style="font-size:6.75px; font-family:Arial;" text-anchor="middle"><textPath startOffset="22.20632615414155" xlink:href="#id19">July</textPath></text><line stroke="#e1ed5e" stroke-width="0.3" x1="58.666819895761336" x2="56.23545636021788" y1="174.27360380694188" y2="178.64263932499728" /><path d="M 58.180547188652646 175.14741091055294 a86.0,86.0 0 0,1 -31.652253787137756,-30.449443065178592" fill="none" id="id20" stroke="none" /><text fill="#e1ed5e" style="font-size:6.75px; font-family:Arial;" text-anchor="middle"><textPath startOffset="22.20632615414155" xlink:href="#id20">August</textPath></text><line stroke="#e1ed5e" stroke-width="0.3" x1="26.63291911575756" x2="22.317208475507996" y1="142.92168965132927" y2="145.44649492493687" /><path d="M 25.769776987707644 143.4266507060508 a86.0,86.0 0 0,1 -11.730757126820373,-40.83630448921669" fill="none" id="id21" stroke="none" /><text fill="#e1ed5e" style="font-size:6.75px; font-family:Arial;" text-anchor="middle"><textPath startOffset="21.46611528233685" xlink:href="#id21">September</textPath></text><line stroke="#e1ed5e" stroke-width="0.3" x1="15.007084014347285" x2="10.007500721073583" y1="101.09737516637583" y2="101.16192664675087" /><path d="M 14.007167355692545 101.11028546245083 a86.0,86.0 0 0,1 10.666146001902534,-42.60595125391555" fill="none" id="id22" stroke="none" /><text fill="#e1ed5e" style="font-size:6.75px; font-family:Arial;" text-anchor="middle"><textPath startOffset="22.20632615414155" xlink:href="#id22">October</textPath></text><line stroke="#e1ed5e" stroke-width="0.3" x1="26.266209847984243" x2="21.928928074336255" y1="57.711370442889674" y2="55.22380399835377" /><path d="M 25.398753493254645 57.213857153982495 a86.0,86.0 0 0,1 29.58750427330803,-30.492523968695096" fill="none" id="id23" stroke="none" /><text fill="#e1ed5e" style="font-size:6.75px; font-family:Arial;" text-anchor="middle"><textPath startOffset="21.46611528233685" xlink:href="#id23">November</textPath></text><line stroke="#e1ed5e" stroke-width="0.3" x1="56.762969772571076" x2="54.21961505331055" y1="26.818313649435495" y2="22.513508569990535" /><path d="M 56.25429882871897 25.957352633546506 a86.0,86.0 0 0,1 42.265352541879196,-11.944610805530505" fill="none" id="id24" stroke="none" /><text fill="#e1ed5e" style="font-size:6.75px; font-family:Arial;" text-anchor="middle"><textPath startOffset="22.20632615414155" xlink:href="#id24">December</textPath></text></svg>